# xmcd
#
# Track frame offsets:
#	150
#	39476
#	61948
#	85290
#	107466
#	129927
#	149336
#	177507
#	187389
#	198071
#
# Disc length: 3358 seconds
#
# Revision: 1
# Processed by: cddbd v1.5.1PL2 Copyright (c) Steve Scherf et al.
# Submitted via: EasyCDDAExtractor 9.0.0.1
#
DISCID=890d1c0a
DTITLE=Whitesnake - Hartwall Arena Helsinki 11-07-06 Disc 1
DYEAR=2006
DGENRE=Hard Rock
TTITLE0=Burn (Incl Stormbringer)
TTITLE1=Slide It In
TTITLE2=Love Ain't No Stranger
TTITLE3=Ready To Rock
TTITLE4=Is This Love
TTITLE5=Ready An' Willing (With Hit And Run Intro)
TTITLE6=Doug Aldrich Solo 
TTITLE7=Reb Beach Solo
TTITLE8=Snake Dance
TTITLE9=Crying In The Rain (With Drum Solo)
EXTD=
EXTT0=
EXTT1=
EXTT2=
EXTT3=
EXTT4=
EXTT5=
EXTT6=
EXTT7=
EXTT8=
EXTT9=
PLAYORDER=
